<svg xmlns="http://www.w3.org/2000/svg" viewBox="0 0 320 320">
                <defs>
                    <linearGradient id="primary-gradient" x1="0%" y1="0%" x2="100%" y2="100%">
                        <stop offset="0%" style="stop-color:#00ffff;stop-opacity:1" />
                        <stop offset="20%" style="stop-color:#0080ff;stop-opacity:1" />
                        <stop offset="40%" style="stop-color:#8000ff;stop-opacity:1" />
                        <stop offset="60%" style="stop-color:#ff00ff;stop-opacity:1" />
                        <stop offset="80%" style="stop-color:#ff8000;stop-opacity:1" />
                        <stop offset="100%" style="stop-color:#00ffff;stop-opacity:1" />
                    </linearGradient>
                    <linearGradient id="inner-gradient" x1="0%" y1="0%" x2="100%" y2="100%">
                        <stop offset="0%" style="stop-color:#ffffff;stop-opacity:0.9" />
                        <stop offset="30%" style="stop-color:#00ffff;stop-opacity:0.7" />
                        <stop offset="70%" style="stop-color:#8000ff;stop-opacity:0.5" />
                        <stop offset="100%" style="stop-color:#ff00ff;stop-opacity:0.3" />
                    </linearGradient>
                    <radialGradient id="core-gradient" cx="50%" cy="50%" r="50%">
                        <stop offset="0%" style="stop-color:#ffffff;stop-opacity:1" />
                        <stop offset="30%" style="stop-color:#00ffff;stop-opacity:0.9" />
                        <stop offset="70%" style="stop-color:#8000ff;stop-opacity:0.7" />
                        <stop offset="100%" style="stop-color:#000000;stop-opacity:0.3" />
                    </radialGradient>
                    <filter id="premium-glow" x="-50%" y="-50%" width="200%" height="200%">
                        <feGaussianBlur stdDeviation="5" result="coloredBlur"/>
                        <feMerge><feMergeNode in="coloredBlur"/><feMergeNode in="SourceGraphic"/></feMerge>
                    </filter>
                    <filter id="intense-glow" x="-100%" y="-100%" width="300%" height="300%">
                        <feGaussianBlur stdDeviation="8" result="coloredBlur"/>
                        <feMerge><feMergeNode in="coloredBlur"/><feMergeNode in="SourceGraphic"/></feMerge>
                    </filter>
                </defs>
                <g transform="translate(160,160)">
                    <path d="M -90,0 C -90,-45 -55,-55 -25,-35 C -12,-25 0,-12 12,0 C 25,12 38,25 50,12 C 70,-8 90,-25 90,0 C 90,45 55,55 25,35 C 12,25 0,12 -12,0 C -25,-12 -38,-25 -50,-12 C -70,8 -90,25 -90,0 Z" fill="none" stroke="url(#primary-gradient)" stroke-width="12" filter="url(#intense-glow)"/>
                    <path d="M -70,0 C -70,-30 -40,-35 -18,-22 C -9,-16 0,-9 9,0 C 18,9 27,16 35,9 C 52,-4 70,-18 70,0 C 70,30 40,35 18,22 C 9,16 0,9 -9,0 C -18,-9 -27,-16 -35,-9 C -52,4 -70,18 -70,0 Z" fill="rgba(0,255,255,0.15)" stroke="url(#inner-gradient)" stroke-width="6" filter="url(#premium-glow)"/>
                    <circle cx="-45" cy="0" r="15" fill="url(#core-gradient)" filter="url(#intense-glow)"/>
                    <circle cx="45" cy="0" r="15" fill="url(#core-gradient)" filter="url(#intense-glow)"/>
                    <ellipse cx="0" cy="0" rx="12" ry="4" fill="url(#primary-gradient)" filter="url(#premium-glow)"/>
                </g>
            </svg>